<svg width="1280" height="832" viewBox="0 0 1280 832" fill="none" xmlns="http://www.w3.org/2000/svg">
<g clip-path="url(#clip0_1_145)">
<rect width="1280" height="832" fill="#FBFBFB"/>
<g filter="url(#filter0_d_1_145)">
<rect width="600" height="832" transform="translate(340)" fill="white"/>
<mask id="path-1-inside-1_1_145" fill="white">
<path d="M340 0H940V100H340V0Z"/>
</mask>
<path d="M340 0H940V100H340V0Z" fill="white"/>
<path d="M940 99H340V101H940V99Z" fill="#DFDFDF" mask="url(#path-1-inside-1_1_145)"/>
<path d="M614.122 40.0791C615.196 40.0791 616.156 40.2866 617.002 40.7017C617.857 41.1086 618.524 41.6782 619.004 42.4106C619.493 43.1349 619.737 43.9609 619.737 44.8887C619.737 45.8164 619.493 46.6465 619.004 47.3789C618.524 48.1032 617.857 48.6688 617.002 49.0757C616.156 49.4744 615.196 49.6738 614.122 49.6738C613.039 49.6738 612.067 49.4744 611.204 49.0757C610.35 48.6688 609.682 48.1032 609.202 47.3789C608.722 46.6465 608.482 45.8164 608.482 44.8887C608.482 43.9609 608.722 43.1349 609.202 42.4106C609.682 41.6782 610.35 41.1086 611.204 40.7017C612.067 40.2866 613.039 40.0791 614.122 40.0791ZM610.362 44.8887C610.354 45.5153 610.508 46.0728 610.826 46.561C611.151 47.0493 611.599 47.4318 612.168 47.7085C612.746 47.9771 613.397 48.1113 614.122 48.1113C614.83 48.1113 615.468 47.9771 616.038 47.7085C616.616 47.4318 617.068 47.0493 617.393 46.561C617.719 46.0728 617.881 45.5153 617.881 44.8887C617.881 44.2702 617.719 43.7168 617.393 43.2285C617.068 42.7402 616.616 42.3618 616.038 42.0933C615.468 41.8247 614.83 41.6904 614.122 41.6904C613.397 41.6904 612.746 41.8247 612.168 42.0933C611.599 42.3618 611.151 42.7402 610.826 43.2285C610.508 43.7168 610.354 44.2702 610.362 44.8887ZM611.778 51.4805H625.889V56.7051H613.707V59.1465H626.67V60.6846H611.827V55.2646H623.985V53.0186H611.778V51.4805ZM623.985 39.2734H625.889V50.4307H623.985V39.2734ZM647.52 60.9775H645.591V39.2734H647.52V60.9775ZM629.844 55.3379C632.741 53.9626 634.959 52.2536 636.497 50.2109C638.043 48.1683 638.926 45.8327 639.146 43.2041H630.845V41.6416H641.099C641.083 44.9131 640.253 47.855 638.609 50.4673C636.965 53.0796 634.393 55.224 630.894 56.9004L629.844 55.3379ZM658.531 43.3994C658.531 44.3353 658.75 45.2305 659.19 46.085C659.638 46.9395 660.264 47.6922 661.07 48.3433C661.875 48.9862 662.803 49.4785 663.853 49.8203L662.95 51.334C661.705 50.9189 660.622 50.3005 659.703 49.4785C658.783 48.6566 658.087 47.6963 657.615 46.5977C657.151 47.8428 656.439 48.9333 655.479 49.8691C654.519 50.7969 653.388 51.4967 652.085 51.9688L651.109 50.4307C652.183 50.0645 653.139 49.5273 653.978 48.8193C654.816 48.1113 655.467 47.2894 655.931 46.3535C656.403 45.4176 656.643 44.4329 656.651 43.3994V42.4717H651.695V40.8848H663.414V42.4717H658.531V43.3994ZM653.99 56.9248C653.99 56.0947 654.279 55.3867 654.856 54.8008C655.434 54.2067 656.264 53.755 657.347 53.4458C658.429 53.1284 659.711 52.9697 661.192 52.9697C662.673 52.9697 663.951 53.1284 665.025 53.4458C666.099 53.755 666.921 54.2067 667.491 54.8008C668.06 55.3867 668.345 56.0947 668.345 56.9248C668.345 57.763 668.06 58.4832 667.491 59.0854C666.921 59.6877 666.099 60.1434 665.025 60.4526C663.951 60.77 662.673 60.9287 661.192 60.9287C659.711 60.9287 658.429 60.77 657.347 60.4526C656.264 60.1434 655.434 59.6877 654.856 59.0854C654.279 58.4832 653.99 57.763 653.99 56.9248ZM655.918 56.9248C655.91 57.4375 656.114 57.881 656.529 58.2554C656.952 58.6216 657.554 58.9023 658.335 59.0977C659.125 59.293 660.057 59.3906 661.131 59.3906C662.238 59.3906 663.19 59.293 663.987 59.0977C664.793 58.9105 665.411 58.6338 665.843 58.2676C666.274 57.8932 666.49 57.4456 666.49 56.9248C666.49 56.4202 666.274 55.9889 665.843 55.6309C665.42 55.2646 664.809 54.988 664.012 54.8008C663.222 54.6055 662.282 54.5078 661.192 54.5078C660.11 54.5078 659.17 54.6055 658.372 54.8008C657.575 54.988 656.964 55.2646 656.541 55.6309C656.118 55.9971 655.91 56.4284 655.918 56.9248ZM666.246 39.2734H668.15V44.8154H671.421V46.4268H668.15V52.3838H666.246V39.2734Z" fill="black"/>
<circle cx="397" cy="50" r="17" fill="#E6E6E6"/>
<path d="M391.017 50.8864V49.75L400.165 45.0909V46.9091L393.148 50.2898L393.205 50.1761V50.4602L393.148 50.3466L400.165 53.7273V55.5455L391.017 50.8864Z" fill="#878787"/>
<rect x="370" y="403" width="540" height="247" rx="5" fill="#F3F3F3"/>
<path d="M378.613 375.352C379.837 375.358 380.931 375.55 381.895 375.928C382.858 376.305 383.61 376.839 384.15 377.529C384.691 378.213 384.961 379.004 384.961 379.902C384.961 380.749 384.723 381.501 384.248 382.158C383.779 382.816 383.122 383.34 382.275 383.73C381.429 384.121 380.456 384.352 379.355 384.424V388.066H386.602V389.355H370.703V388.066H377.852V384.424C376.758 384.346 375.788 384.111 374.941 383.721C374.102 383.33 373.444 382.809 372.969 382.158C372.5 381.501 372.266 380.749 372.266 379.902C372.266 379.004 372.536 378.213 373.076 377.529C373.623 376.839 374.375 376.305 375.332 375.928C376.296 375.55 377.389 375.358 378.613 375.352ZM373.75 379.902C373.75 380.56 373.958 381.139 374.375 381.641C374.792 382.135 375.368 382.523 376.104 382.803C376.839 383.076 377.676 383.216 378.613 383.223C379.551 383.216 380.387 383.076 381.123 382.803C381.859 382.523 382.435 382.135 382.852 381.641C383.268 381.139 383.477 380.56 383.477 379.902C383.477 379.258 383.268 378.688 382.852 378.193C382.435 377.692 381.855 377.305 381.113 377.031C380.378 376.758 379.544 376.621 378.613 376.621C377.682 376.621 376.846 376.758 376.104 377.031C375.368 377.305 374.792 377.692 374.375 378.193C373.958 378.688 373.75 379.258 373.75 379.902ZM401.992 379.668H390.137V374.512H391.641V378.398H401.992V379.668ZM387.969 381.387H403.867V382.637H387.969V381.387ZM389.961 384.199H401.816V388.262H391.543V390.117H402.441V391.348H390V387.09H400.312V385.41H389.961V384.199ZM410.957 375.488C411.855 375.488 412.656 375.661 413.359 376.006C414.069 376.351 414.622 376.833 415.02 377.451C415.423 378.07 415.625 378.776 415.625 379.57C415.625 380.365 415.423 381.071 415.02 381.689C414.622 382.308 414.069 382.79 413.359 383.135C412.656 383.48 411.855 383.652 410.957 383.652C410.052 383.652 409.242 383.48 408.525 383.135C407.816 382.79 407.262 382.308 406.865 381.689C406.468 381.071 406.27 380.365 406.27 379.57C406.27 378.776 406.468 378.07 406.865 377.451C407.262 376.833 407.816 376.351 408.525 376.006C409.242 375.661 410.052 375.488 410.957 375.488ZM406.182 386.484C408.154 386.484 410.026 386.445 411.797 386.367C413.574 386.289 415.254 386.133 416.836 385.898L416.953 387.031C415.202 387.357 413.421 387.565 411.611 387.656C409.801 387.747 407.793 387.793 405.586 387.793L405.371 386.484H406.182ZM407.773 379.57C407.773 380.104 407.907 380.579 408.174 380.996C408.447 381.406 408.825 381.729 409.307 381.963C409.795 382.191 410.345 382.305 410.957 382.305C411.562 382.305 412.106 382.191 412.588 381.963C413.07 381.729 413.444 381.406 413.711 380.996C413.984 380.579 414.121 380.104 414.121 379.57C414.121 379.043 413.984 378.571 413.711 378.154C413.444 377.738 413.07 377.415 412.588 377.188C412.106 376.953 411.562 376.836 410.957 376.836C410.345 376.836 409.795 376.953 409.307 377.188C408.825 377.415 408.447 377.738 408.174 378.154C407.907 378.571 407.773 379.043 407.773 379.57ZM417.988 374.219H419.512V391.621H417.988V374.219ZM432.5 374.863C433.359 374.863 434.128 375.029 434.805 375.361C435.488 375.687 436.022 376.143 436.406 376.729C436.797 377.308 436.992 377.969 436.992 378.711C436.992 379.453 436.797 380.117 436.406 380.703C436.022 381.283 435.488 381.735 434.805 382.061C434.128 382.38 433.359 382.539 432.5 382.539C431.634 382.539 430.856 382.38 430.166 382.061C429.482 381.735 428.949 381.283 428.564 380.703C428.18 380.117 427.988 379.453 427.988 378.711C427.988 377.969 428.18 377.308 428.564 376.729C428.949 376.143 429.482 375.687 430.166 375.361C430.856 375.029 431.634 374.863 432.5 374.863ZM429.492 378.711C429.486 379.212 429.609 379.658 429.863 380.049C430.124 380.439 430.482 380.745 430.938 380.967C431.4 381.182 431.921 381.289 432.5 381.289C433.066 381.289 433.577 381.182 434.033 380.967C434.495 380.745 434.857 380.439 435.117 380.049C435.378 379.658 435.508 379.212 435.508 378.711C435.508 378.216 435.378 377.773 435.117 377.383C434.857 376.992 434.495 376.689 434.033 376.475C433.577 376.26 433.066 376.152 432.5 376.152C431.921 376.152 431.4 376.26 430.938 376.475C430.482 376.689 430.124 376.992 429.863 377.383C429.609 377.773 429.486 378.216 429.492 378.711ZM430.625 383.984H441.914V388.164H432.168V390.117H442.539V391.348H430.664V387.012H440.391V385.215H430.625V383.984ZM440.391 374.219H441.914V383.145H440.391V374.219ZM459.219 391.582H457.676V374.219H459.219V391.582ZM445.078 387.07C447.396 385.97 449.17 384.603 450.4 382.969C451.637 381.335 452.344 379.466 452.52 377.363H445.879V376.113H454.082C454.069 378.73 453.405 381.084 452.09 383.174C450.775 385.264 448.717 386.979 445.918 388.32L445.078 387.07Z" fill="black"/>
<rect x="370" y="145" width="130" height="43" rx="5" fill="#F3F3F3"/>
<rect x="845" y="32" width="55" height="35" rx="5" fill="#EFEFEF"/>
<path d="M866.061 44.3799C866.061 44.9707 866.288 45.5347 866.742 46.0718C867.201 46.604 867.794 47.0532 868.521 47.4194C869.254 47.7808 870.016 48.0176 870.807 48.1299L870.338 49.0674C869.654 48.9551 868.993 48.7598 868.353 48.4814C867.713 48.1982 867.14 47.8467 866.632 47.4268C866.129 47.002 865.743 46.5308 865.475 46.0132C865.206 46.5356 864.82 47.0068 864.317 47.4268C863.814 47.8467 863.243 48.1982 862.604 48.4814C861.964 48.7598 861.3 48.9551 860.611 49.0674L860.143 48.1299C860.938 48.0176 861.7 47.7808 862.428 47.4194C863.155 47.0581 863.744 46.6113 864.193 46.0791C864.647 45.5469 864.874 44.9805 864.874 44.3799V43.6328H866.061V44.3799ZM859.527 50.5029H871.393V51.4697H866.002V56.1865H864.874V51.4697H859.527V50.5029ZM883.287 50.9277H882.13V47.5146H879.508V46.5625H882.13V43.1641H883.287V50.9277ZM872.55 49.8877C873.189 49.6582 873.758 49.3213 874.256 48.877C874.759 48.4326 875.152 47.9224 875.436 47.3462C875.719 46.77 875.86 46.1768 875.86 45.5664V45.083H872.916V44.1162H879.933V45.083H877.018V45.5518C877.018 46.1133 877.152 46.6577 877.42 47.1851C877.689 47.7124 878.067 48.1812 878.556 48.5913C879.044 48.9966 879.601 49.3066 880.226 49.5215L879.625 50.4443C878.902 50.1807 878.265 49.79 877.713 49.2725C877.167 48.7549 876.751 48.1567 876.468 47.478C876.19 48.2397 875.76 48.9111 875.179 49.4922C874.603 50.0732 873.927 50.5127 873.15 50.8105L872.55 49.8877ZM874.601 53.7549C874.601 53.2471 874.774 52.8125 875.121 52.4512C875.472 52.0898 875.975 51.814 876.629 51.6235C877.289 51.4331 878.067 51.3379 878.966 51.3379C879.864 51.3379 880.641 51.4331 881.295 51.6235C881.949 51.814 882.452 52.0898 882.804 52.4512C883.155 52.8125 883.331 53.2471 883.331 53.7549C883.331 54.2627 883.155 54.6973 882.804 55.0586C882.452 55.4199 881.949 55.6958 881.295 55.8862C880.641 56.0815 879.864 56.1816 878.966 56.1865C878.062 56.1816 877.284 56.0815 876.629 55.8862C875.975 55.6958 875.472 55.4199 875.121 55.0586C874.774 54.6973 874.601 54.2627 874.601 53.7549ZM875.743 53.7549C875.743 54.0625 875.87 54.3311 876.124 54.5605C876.378 54.7852 876.744 54.9585 877.223 55.0806C877.706 55.2026 878.275 55.2637 878.929 55.2637C879.598 55.2637 880.177 55.2026 880.665 55.0806C881.153 54.9634 881.529 54.7925 881.793 54.5679C882.057 54.3384 882.188 54.0674 882.188 53.7549C882.188 53.4424 882.059 53.1714 881.8 52.9419C881.542 52.7124 881.168 52.5366 880.68 52.4146C880.196 52.2925 879.625 52.2314 878.966 52.2314C878.302 52.2314 877.728 52.2925 877.245 52.4146C876.761 52.5366 876.39 52.7124 876.131 52.9419C875.873 53.1714 875.743 53.4424 875.743 53.7549Z" fill="black"/>
<rect x="370" y="316" width="68" height="29" rx="5" fill="#FFD9BE"/>
<path d="M383.742 336L384.258 332.875H381.414L380.898 336H379.758L380.273 332.875H378.602L378.789 331.75H380.461L380.93 328.938H379.273L379.445 327.812H381.102L381.617 324.688H382.758L382.242 327.812H385.086L385.602 324.688H386.742L386.227 327.812H387.914L387.727 328.938H386.055L385.586 331.75H387.242L387.055 332.875H385.398L384.883 336H383.742ZM381.602 331.75H384.445L384.914 328.938H382.07L381.602 331.75ZM400.086 323.391V333.656H398.867V323.391H400.086ZM400.523 335.938V336.969H391.117V332.703H392.336V335.938H400.523ZM393.664 326.625C393.664 328.469 395.148 330.094 397.227 330.734L396.617 331.719C394.984 331.195 393.695 330.086 393.07 328.641C392.461 330.195 391.18 331.398 389.523 331.969L388.898 331C390.977 330.328 392.445 328.578 392.445 326.625V326.25H389.242V325.266H392.445V323.453H393.68V325.266H396.852V326.25H393.664V326.625ZM413.43 324.281V325.5C413.43 326.82 413.43 328.25 413.039 330.25H415.102V331.266H409.367V337.297H408.133V331.266H402.445V330.25H411.789C412.211 328.25 412.211 326.789 412.211 325.5V325.297H404.039V324.281H413.43ZM427.133 323.391V326.875H429.242V327.906H427.133V331.781H425.914V323.391H427.133ZM423.164 324.25V328H418.102V329.938C420.57 329.938 422.359 329.852 424.523 329.484L424.648 330.516C422.414 330.891 420.555 330.969 417.977 330.969H416.898V327.031H421.961V325.266H416.867V324.25H423.164ZM422.68 332.203C425.508 332.203 427.258 333.141 427.258 334.734C427.258 336.328 425.508 337.234 422.68 337.234C419.805 337.234 418.07 336.328 418.07 334.734C418.07 333.141 419.805 332.203 422.68 332.203ZM422.68 333.172C420.555 333.172 419.258 333.75 419.273 334.734C419.258 335.703 420.555 336.281 422.68 336.281C424.789 336.281 426.07 335.703 426.07 334.734C426.07 333.75 424.789 333.172 422.68 333.172Z" fill="black"/>
<path d="M397.613 425.352C401.305 425.371 403.961 427.168 403.961 429.902C403.961 432.49 401.656 434.209 398.355 434.414V438.066H405.602V439.355H389.703V438.066H396.852V434.414C393.561 434.199 391.266 432.48 391.266 429.902C391.266 427.168 393.922 425.371 397.613 425.352ZM397.613 426.621C394.801 426.621 392.75 427.949 392.75 429.902C392.75 431.914 394.801 433.203 397.613 433.223C400.426 433.203 402.477 431.914 402.477 429.902C402.477 427.949 400.426 426.621 397.613 426.621ZM420.992 428.398V429.668H409.137V424.512H410.641V428.398H420.992ZM422.867 431.387V432.637H406.969V431.387H422.867ZM420.816 434.199V438.262H410.543V440.117H421.441V441.348H409V437.09H419.312V435.41H408.961V434.199H420.816ZM440.094 433.379V434.629H424.273V433.379H440.094ZM438.336 439.922V441.211H426.324V436.152H427.867V439.922H438.336ZM432.184 424.844C435.914 424.824 438.316 426.113 438.316 428.281C438.316 430.449 435.914 431.738 432.184 431.738C428.414 431.738 426.031 430.449 426.031 428.281C426.031 426.113 428.414 424.824 432.184 424.844ZM432.184 426.074C429.391 426.074 427.594 426.914 427.613 428.281C427.594 429.648 429.391 430.488 432.184 430.488C434.957 430.488 436.754 429.648 436.754 428.281C436.754 426.914 434.957 426.074 432.184 426.074ZM460.992 424.219V441.621H459.449V431.23H454.039V429.961H459.449V424.219H460.992ZM449.078 426.172V436.113C451.725 436.084 454.088 435.947 456.695 435.41L456.891 436.68C454.117 437.246 451.676 437.402 448.863 437.402H447.535V426.172H449.078ZM479.742 434.316V435.586H472.496V441.582H470.992V435.586H463.844V434.316H479.742ZM477.672 425.195V431.953H465.895V425.195H477.672ZM467.398 426.445V430.742H476.148V426.445H467.398ZM500.504 424.219V434.746H498.98V424.219H500.504ZM500.504 435.684V441.348H489.215V435.684H500.504ZM490.719 436.914V440.098H499V436.914H490.719ZM497.066 426.094V427.344H486.422V426.094H490.973V424.082H492.516V426.094H497.066ZM491.754 428.203C494.312 428.203 496.012 429.414 496.012 431.289C496.012 433.184 494.312 434.395 491.754 434.395C489.176 434.395 487.477 433.184 487.496 431.289C487.477 429.414 489.176 428.203 491.754 428.203ZM491.754 429.375C490.055 429.375 488.941 430.137 488.961 431.289C488.941 432.48 490.055 433.203 491.754 433.223C493.434 433.203 494.547 432.48 494.547 431.289C494.547 430.137 493.434 429.375 491.754 429.375ZM519.293 432.988V434.238H503.453V432.988H519.293ZM517.477 429.805V431.074H505.465V424.98H517.32V426.23H506.988V429.805H517.477ZM517.613 439.902V441.191H505.504V436.113H507.027V439.902H517.613ZM539.195 424.219V431.387H542.105V432.656H539.195V441.582H537.672V424.219H539.195ZM535.992 427.012V428.281H525.66V427.012H530.133V424.434H531.656V427.012H535.992ZM530.914 429.727C533.375 429.727 535.152 431.367 535.172 433.711C535.152 436.055 533.375 437.695 530.914 437.695C528.434 437.695 526.637 436.055 526.656 433.711C526.637 431.367 528.434 429.727 530.914 429.727ZM530.914 431.016C529.293 431.016 528.102 432.148 528.121 433.711C528.102 435.293 529.293 436.406 530.914 436.387C532.516 436.406 533.688 435.293 533.707 433.711C533.688 432.148 532.516 431.016 530.914 431.016ZM556.988 424.922V429.434H546.52V431.68H557.359V432.949H544.977V428.223H555.426V426.172H544.938V424.922H556.988ZM558.922 434.785V436.016H551.695V441.621H550.172V436.016H543.023V434.785H558.922ZM562.164 440.117C561.48 440.117 560.895 439.551 560.914 438.848C560.895 438.164 561.48 437.598 562.164 437.598C562.848 437.598 563.414 438.164 563.414 438.848C563.414 439.551 562.848 440.117 562.164 440.117ZM567.242 440.117C566.559 440.117 565.973 439.551 565.992 438.848C565.973 438.164 566.559 437.598 567.242 437.598C567.926 437.598 568.492 438.164 568.492 438.848C568.492 439.551 567.926 440.117 567.242 440.117ZM572.32 440.117C571.637 440.117 571.051 439.551 571.07 438.848C571.051 438.164 571.637 437.598 572.32 437.598C573.004 437.598 573.57 438.164 573.57 438.848C573.57 439.551 573.004 440.117 572.32 440.117ZM591.48 430.156V431.406H584.371V438.887H582.828V431.406H575.738V430.156H591.48ZM608.766 430.156V431.406H601.656V438.887H600.113V431.406H593.023V430.156H608.766Z" fill="black"/>
<rect x="370" y="759" width="100" height="40" rx="5" fill="#FFAA46"/>
<path d="M390.427 772.647C391.071 772.647 391.647 772.772 392.155 773.021C392.668 773.265 393.068 773.607 393.356 774.046C393.649 774.481 393.796 774.977 393.796 775.533C393.796 776.09 393.649 776.588 393.356 777.027C393.068 777.462 392.668 777.801 392.155 778.045C391.647 778.285 391.071 778.404 390.427 778.404C389.777 778.404 389.194 778.285 388.676 778.045C388.164 777.801 387.763 777.462 387.475 777.027C387.187 776.588 387.043 776.09 387.043 775.533C387.043 774.977 387.187 774.481 387.475 774.046C387.763 773.607 388.164 773.265 388.676 773.021C389.194 772.772 389.777 772.647 390.427 772.647ZM388.171 775.533C388.166 775.909 388.259 776.244 388.449 776.537C388.645 776.83 388.913 777.059 389.255 777.225C389.602 777.386 389.992 777.467 390.427 777.467C390.852 777.467 391.235 777.386 391.577 777.225C391.923 777.059 392.194 776.83 392.39 776.537C392.585 776.244 392.683 775.909 392.683 775.533C392.683 775.162 392.585 774.83 392.39 774.537C392.194 774.244 391.923 774.017 391.577 773.856C391.235 773.695 390.852 773.614 390.427 773.614C389.992 773.614 389.602 773.695 389.255 773.856C388.913 774.017 388.645 774.244 388.449 774.537C388.259 774.83 388.166 775.162 388.171 775.533ZM389.021 779.488H397.487V782.623H390.178V784.088H397.956V785.011H389.05V781.759H396.345V780.411H389.021V779.488ZM396.345 772.164H397.487V778.858H396.345V772.164ZM410.466 785.187H409.309V772.164H410.466V785.187ZM399.86 781.803C401.599 780.978 402.929 779.952 403.852 778.727C404.78 777.501 405.31 776.1 405.441 774.522H400.461V773.585H406.613C406.604 775.548 406.105 777.313 405.119 778.88C404.133 780.448 402.59 781.734 400.49 782.74L399.86 781.803ZM428.615 778.331H426.506V785.187H425.363V772.164H426.506V777.364H428.615V778.331ZM416.97 773.453H418.112V780.909C419.128 780.909 420.124 780.863 421.101 780.77C422.082 780.677 423.083 780.523 424.104 780.309L424.25 781.29C423.19 781.505 422.153 781.656 421.137 781.744C420.122 781.832 419.079 781.876 418.01 781.876H416.97V773.453ZM439.47 777.467H441.579V778.434H439.47V785.187H438.327V772.164H439.47V777.467ZM429.479 781.803C431.149 780.973 432.443 779.942 433.361 778.712C434.279 777.481 434.804 776.09 434.936 774.537H430.08V773.57H436.101C436.096 775.504 435.607 777.259 434.636 778.836C433.664 780.414 432.16 781.705 430.124 782.711L429.479 781.803ZM453.122 785.187H451.965V772.164H453.122V785.187ZM442.517 781.803C444.255 780.978 445.585 779.952 446.508 778.727C447.436 777.501 447.966 776.1 448.098 774.522H443.117V773.585H449.27C449.26 775.548 448.762 777.313 447.775 778.88C446.789 780.448 445.246 781.734 443.146 782.74L442.517 781.803Z" fill="white"/>
<path d="M384.328 173L384.309 171.711L389.133 166.633C390.812 164.855 391.613 163.898 391.613 162.59C391.613 161.145 390.383 160.188 388.801 160.188C387.121 160.188 386.047 161.262 386.047 162.844H384.387C384.367 160.344 386.301 158.664 388.859 158.664C391.418 158.664 393.254 160.383 393.254 162.59C393.254 164.172 392.512 165.402 390.012 167.98L386.77 171.32V171.438H393.508V173H384.328ZM400.695 173.195C397.551 173.195 395.754 170.559 395.754 165.93C395.754 161.34 397.59 158.664 400.695 158.664C403.801 158.664 405.637 161.34 405.637 165.93C405.637 170.559 403.82 173.195 400.695 173.195ZM400.695 171.633C402.727 171.633 403.918 169.582 403.918 165.93C403.918 162.277 402.727 160.188 400.695 160.188C398.664 160.188 397.453 162.277 397.453 165.93C397.453 169.582 398.645 171.633 400.695 171.633ZM407.98 173L407.961 171.711L412.785 166.633C414.465 164.855 415.266 163.898 415.266 162.59C415.266 161.145 414.035 160.188 412.453 160.188C410.773 160.188 409.699 161.262 409.699 162.844H408.039C408.02 160.344 409.953 158.664 412.512 158.664C415.07 158.664 416.906 160.383 416.906 162.59C416.906 164.172 416.164 165.402 413.664 167.98L410.422 171.32V171.438H417.16V173H407.98ZM419.055 170.109V168.664L425.422 158.859H427.59V168.566H429.562V170.109H427.59V173H425.91V170.109H419.055ZM420.949 168.566H425.91V161.086H425.734L420.949 168.449V168.566ZM432.453 173.117C431.77 173.117 431.184 172.551 431.203 171.848C431.184 171.164 431.77 170.598 432.453 170.598C433.137 170.598 433.703 171.164 433.703 171.848C433.703 172.551 433.137 173.117 432.453 173.117ZM440.441 173.195C437.297 173.195 435.5 170.559 435.5 165.93C435.5 161.34 437.336 158.664 440.441 158.664C443.547 158.664 445.383 161.34 445.383 165.93C445.383 170.559 443.566 173.195 440.441 173.195ZM440.441 171.633C442.473 171.633 443.664 169.582 443.664 165.93C443.664 162.277 442.473 160.188 440.441 160.188C438.41 160.188 437.199 162.277 437.199 165.93C437.199 169.582 438.391 171.633 440.441 171.633ZM452.648 173.195C450.188 173.156 447.492 171.711 447.492 166.477C447.492 161.477 449.543 158.664 452.863 158.664C455.344 158.664 457.082 160.188 457.453 162.414H455.715C455.383 161.164 454.445 160.227 452.863 160.227C450.539 160.227 449.152 162.219 449.152 165.617H449.328C450.148 164.445 451.438 163.742 452.961 163.742C455.48 163.742 457.57 165.695 457.57 168.43C457.57 171.086 455.617 173.215 452.648 173.195ZM452.648 171.652C454.484 171.652 455.852 170.207 455.871 168.449C455.852 166.711 454.543 165.285 452.688 165.285C450.832 165.285 449.406 166.789 449.387 168.469C449.387 170.129 450.754 171.652 452.648 171.652ZM460.539 173.117C459.855 173.117 459.27 172.551 459.289 171.848C459.27 171.164 459.855 170.598 460.539 170.598C461.223 170.598 461.789 171.164 461.789 171.848C461.789 172.551 461.223 173.117 460.539 173.117ZM464.406 173L464.387 171.711L469.211 166.633C470.891 164.855 471.691 163.898 471.691 162.59C471.691 161.145 470.461 160.188 468.879 160.188C467.199 160.188 466.125 161.262 466.125 162.844H464.465C464.445 160.344 466.379 158.664 468.938 158.664C471.496 158.664 473.332 160.383 473.332 162.59C473.332 164.172 472.59 165.402 470.09 167.98L466.848 171.32V171.438H473.586V173H464.406ZM475.48 170.109V168.664L481.848 158.859H484.016V168.566H485.988V170.109H484.016V173H482.336V170.109H475.48ZM477.375 168.566H482.336V161.086H482.16L477.375 168.449V168.566Z" fill="black"/>
</g>
<rect x="370" y="217" width="100" height="80" rx="5" fill="#F3F3F3"/>
<path d="M394 282.5H444V232.5H394V282.5Z" fill="black"/>
<rect x="480" y="217" width="100" height="80" rx="5" fill="#F3F3F3"/>
<path d="M504 282.5H554V232.5H504V282.5Z" fill="black"/>
<rect x="590" y="217" width="100" height="80" rx="5" fill="#F3F3F3"/>
<path d="M614 282.5H664V232.5H614V282.5Z" fill="black"/>
<rect x="700" y="217" width="100" height="80" rx="5" fill="#90EE90"/>
<path d="M724 282.5H774V232.5H724V282.5Z" fill="black"/>
<rect x="810" y="217" width="100" height="80" rx="5" fill="#F3F3F3"/>
<path d="M834 282.5H884V232.5H834V282.5Z" fill="black"/>
<rect x="448" y="316" width="56" height="29" rx="5" fill="#FFB4B4"/>
<path d="M461.281 336L461.797 332.875H458.953L458.438 336H457.297L457.812 332.875H456.141L456.328 331.75H458L458.469 328.938H456.812L456.984 327.812H458.641L459.156 324.688H460.297L459.781 327.812H462.625L463.141 324.688H464.281L463.766 327.812H465.453L465.266 328.938H463.594L463.125 331.75H464.781L464.594 332.875H462.938L462.422 336H461.281ZM459.141 331.75H461.984L462.453 328.938H459.609L459.141 331.75ZM469.891 324.453C471.164 324.461 472.195 325.203 472.797 326.484H476.453V323.375H477.672V337.297H476.453V331.906H472.891C472.305 333.312 471.234 334.125 469.891 334.125C467.844 334.125 466.406 332.25 466.406 329.297C466.406 326.344 467.844 324.469 469.891 324.453ZM469.891 325.547C468.516 325.562 467.578 327.031 467.578 329.297C467.578 331.562 468.516 333.031 469.891 333.031C471.25 333.031 472.203 331.562 472.203 329.297C472.203 327.031 471.25 325.562 469.891 325.547ZM473.156 327.516C473.281 328.055 473.359 328.648 473.359 329.297C473.359 329.867 473.297 330.406 473.203 330.891H476.453V327.516H473.156ZM491.781 323.375V332.172H490.609V328.188H488.75V331.672H487.594V323.656H488.75V327.172H490.609V323.375H491.781ZM487.031 325.047V326.031H479.906V325.047H482.875V323.484H484.094V325.047H487.031ZM483.484 326.781C485.25 326.781 486.453 327.703 486.469 329.156C486.453 330.578 485.25 331.516 483.484 331.516C481.734 331.516 480.5 330.578 480.516 329.156C480.5 327.703 481.734 326.781 483.484 326.781ZM483.484 327.688C482.375 327.688 481.609 328.281 481.609 329.156C481.609 330.016 482.375 330.594 483.484 330.594C484.594 330.594 485.359 330.016 485.359 329.156C485.359 328.281 484.594 327.688 483.484 327.688ZM487.188 332.406C490.109 332.406 491.859 333.281 491.859 334.844C491.859 336.359 490.109 337.234 487.188 337.234C484.266 337.234 482.516 336.359 482.531 334.844C482.516 333.281 484.266 332.406 487.188 332.406ZM487.188 333.375C485.031 333.359 483.734 333.891 483.75 334.844C483.734 335.75 485.031 336.281 487.188 336.281C489.344 336.281 490.625 335.75 490.641 334.844C490.625 333.891 489.344 333.359 487.188 333.375Z" fill="black"/>
</g>
<defs>
<filter id="filter0_d_1_145" x="325" y="-11" width="630" height="862" filterUnits="userSpaceOnUse" color-interpolation-filters="sRGB">
<feFlood flood-opacity="0" result="BackgroundImageFix"/>
<feColorMatrix in="SourceAlpha" type="matrix" values="0 0 0 0 0 0 0 0 0 0 0 0 0 0 0 0 0 0 127 0" result="hardAlpha"/>
<feOffset dy="4"/>
<feGaussianBlur stdDeviation="7.5"/>
<feComposite in2="hardAlpha" operator="out"/>
<feColorMatrix type="matrix" values="0 0 0 0 0 0 0 0 0 0 0 0 0 0 0 0 0 0 0.25 0"/>
<feBlend mode="normal" in2="BackgroundImageFix" result="effect1_dropShadow_1_145"/>
<feBlend mode="normal" in="SourceGraphic" in2="effect1_dropShadow_1_145" result="shape"/>
</filter>
<clipPath id="clip0_1_145">
<rect width="1280" height="832" fill="white"/>
</clipPath>
</defs>
</svg>
